<svg width="223" height="66" viewBox="0 0 223 66" fill="none" xmlns="http://www.w3.org/2000/svg">
<path d="M41.5 24.5V12H44V9.5H46.5V7H54V9.5H56.5V12H59V24.5H54V19.5H46.5V24.5H41.5ZM46.5 17H54V12H51.5V9.5H49V12H46.5V17ZM64 24.5V7H69V22H79V24.5H64ZM81.5 24.5V7H99V9.5H86.5V14.5H96.5V17H86.5V22H99V24.5H81.5ZM101.5 24.5V7H106.5V14.5H109V12H111.5V9.5H114V7H119V9.5H116.5V12H114V14.5H111.5V17H114V19.5H116.5V22H119V24.5H111.5V22H109V19.5H106.5V24.5H101.5ZM124 24.5V22H121.5V19.5H126.5V22H134V17H124V14.5H121.5V9.5H124V7H136.5V9.5H139V12H134V9.5H126.5V14.5H136.5V17H139V22H136.5V24.5H124ZM141.5 24.5V7H159V9.5H146.5V14.5H156.5V17H146.5V22H159V24.5H141.5ZM169 24.5V17H166.5V14.5H164V7H169V14.5H174V7H179V14.5H176.5V17H174V24.5H169ZM1.5 57.5V40H6.5V42.5H9V45H11.5V47.5H14V40H19V57.5H14V52.5H11.5V50H9V47.5H6.5V57.5H1.5ZM24 57.5V55H29V42.5H24V40H39V42.5H34V55H39V57.5H24ZM41.5 57.5V52.5H44V50H46.5V47.5H49V45H51.5V42.5H41.5V40H59V45H56.5V47.5H54V50H51.5V52.5H49V55H59V57.5H41.5ZM61.5 57.5V40H66.5V47.5H74V40H79V57.5H74V50H66.5V57.5H61.5ZM86.5 57.5V55H84V52.5H81.5V45H84V42.5H86.5V40H99V42.5H89V45H86.5V52.5H89V55H94V50H91.5V47.5H99V57.5H86.5ZM104 57.5V55H101.5V42.5H104V40H116.5V42.5H119V55H116.5V57.5H104ZM106.5 55H114V42.5H106.5V55ZM121.5 57.5V40H136.5V42.5H139V50H134V52.5H136.5V55H139V57.5H131.5V55H129V52.5H126.5V57.5H121.5ZM126.5 50H131.5V47.5H134V42.5H126.5V50ZM144 57.5V55H141.5V42.5H144V40H156.5V42.5H159V55H156.5V57.5H144ZM146.5 55H154V42.5H146.5V55ZM161.5 57.5V40H174V42.5H176.5V45H179V52.5H176.5V55H174V57.5H161.5ZM166.5 55H171.5V52.5H174V45H171.5V42.5H166.5V55ZM184 57.5V55H181.5V42.5H184V40H196.5V42.5H199V55H196.5V57.5H184ZM186.5 55H194V42.5H186.5V55ZM209 57.5V55H206.5V52.5H204V50H201.5V40H206.5V47.5H209V50H211.5V47.5H214V40H219V50H216.5V52.5H214V55H211.5V57.5H209Z" fill="#CBFF00"/>
<path d="M195 6.5H212.5C218.023 6.5 222.5 10.9772 222.5 16.5C222.5 22.0228 218.023 26.5 212.5 26.5H204C197.649 26.5 192.5 21.3513 192.5 15V9C192.5 7.61929 193.619 6.5 195 6.5Z" fill="#CBFF00" stroke="#CBFF00"/>
<path d="M0 16.5C0 10.701 4.70101 6 10.5 6H28C29.6569 6 31 7.34315 31 9V15C31 21.6274 25.6274 27 19 27H10.5C4.70101 27 0 22.299 0 16.5V16.5Z" fill="#CBFF00"/>
</svg>
